<?xml version="1.0" encoding="UTF-8"?>
<svg id="Camada_1" data-name="Camada 1" xmlns="http://www.w3.org/2000/svg" viewBox="0 0 610 610">
  <defs>
    <style>
      .cls-1 {
        fill: #fff;
      }

      .cls-2 {
        fill: aqua;
      }
    </style>
  </defs>
  <g>
    <circle class="cls-1" cx="305" cy="305" r="282.12"/>
    <path class="cls-2" d="m305,45.75c69.25,0,134.35,26.97,183.32,75.93,48.97,48.97,75.93,114.07,75.93,183.32s-26.97,134.35-75.93,183.32-114.07,75.93-183.32,75.93-134.35-26.97-183.32-75.93c-48.97-48.97-75.93-114.07-75.93-183.32s26.97-134.35,75.93-183.32c48.97-48.97,114.07-75.93,183.32-75.93m0-45.75C136.55,0,0,136.55,0,305s136.55,305,305,305,305-136.55,305-305S473.45,0,305,0h0Z"/>
  </g>
  <g>
    <circle class="cls-1" cx="305" cy="305" r="282.12"/>
    <path class="cls-2" d="m305,45.75c69.25,0,134.35,26.97,183.32,75.93,48.97,48.97,75.93,114.07,75.93,183.32s-26.97,134.35-75.93,183.32-114.07,75.93-183.32,75.93-134.35-26.97-183.32-75.93c-48.97-48.97-75.93-114.07-75.93-183.32s26.97-134.35,75.93-183.32c48.97-48.97,114.07-75.93,183.32-75.93m0-45.75C136.55,0,0,136.55,0,305s136.55,305,305,305,305-136.55,305-305S473.45,0,305,0h0Z"/>
  </g>
  <g>
    <g>
      <path d="m162.83,331.48c4.46,2.74,10.98,5.03,17.84,5.03,10.18,0,16.13-5.38,16.13-13.15,0-7.21-4.12-11.32-14.52-15.33-12.58-4.46-20.36-10.98-20.36-21.84,0-12.01,9.95-20.93,24.93-20.93,7.89,0,13.61,1.83,17.04,3.77l-2.74,8.12c-2.52-1.37-7.66-3.66-14.64-3.66-10.52,0-14.52,6.29-14.52,11.55,0,7.21,4.69,10.75,15.33,14.87,13.04,5.03,19.67,11.32,19.67,22.65,0,11.89-8.81,22.19-26.99,22.19-7.43,0-15.55-2.17-19.67-4.92l2.52-8.35Z"/>
      <path d="m157.06,341.35c12.61,6.98,30.83,10.42,42.8.19,9.78-8.35,11.18-23.7,2.91-33.63-4.64-5.57-10.96-8.14-17.46-10.91-4.49-1.92-10.83-3.98-11.9-9.46-2.47-12.61,17.92-12.1,24.7-8.64-1.75-4.31-3.5-8.61-5.26-12.92l-2.74,8.12c5.6-2.28,11.2-4.56,16.8-6.84-12.41-6.3-29.83-8.38-40.32,2.64-8.76,9.19-7.54,24.11,1.69,32.43,7.33,6.61,27.24,8.3,27.26,20.22.03,13.89-21.44,11.96-29.45,7.39,1.75,4.31,3.5,8.61,5.26,12.92l2.52-8.35c4.26-14.13-17.81-20.16-22.06-6.08l-2.52,8.35c-1.44,4.78.94,10.46,5.26,12.92,23.75,13.53,63.8,5.38,63.87-27.15.03-13.68-8.21-24.34-20.14-30.28-3.39-1.68-7.01-2.82-10.41-4.46-1.43-.69-3.36-1.42-4.43-2.58-.62-.67-.18.47.02.08.1-.2.09-.33,1.8-.25,3.65.18,6.78.26,10.12,1.95,6.84,3.47,14.34.43,16.8-6.84l2.74-8.12c1.53-4.53-.96-10.73-5.26-12.92-23.48-11.97-61.21-2.32-59.07,29.29.94,13.92,11.14,23.25,23.28,28.47,2.06.89,13.69,4.02,11.31,7.38-2.51,3.55-13.63-1.07-16.59-2.7-12.89-7.14-24.44,12.61-11.55,19.75Z"/>
    </g>
    <g>
      <path d="m235.23,274.98h-23.45v-8.46h57.07v8.46h-23.56v68.62h-10.06v-68.62Z"/>
      <path d="m235.23,263.54h-23.45l11.44,11.44v-8.46l-11.44,11.44h57.07l-11.44-11.44v8.46l11.44-11.44h-23.56c-6.18,0-11.44,5.24-11.44,11.44v68.62l11.44-11.44h-10.06l11.44,11.44v-68.62c0-14.72-22.88-14.74-22.88,0v68.62c0,6.18,5.24,11.44,11.44,11.44h10.06c6.18,0,11.44-5.24,11.44-11.44v-68.62l-11.44,11.44h23.56c6.18,0,11.44-5.24,11.44-11.44v-8.46c0-6.18-5.24-11.44-11.44-11.44h-57.07c-6.18,0-11.44,5.24-11.44,11.44v8.46c0,6.18,5.24,11.44,11.44,11.44h23.45c14.72,0,14.74-22.88,0-22.88Z"/>
    </g>
    <g>
      <path d="m281.33,319.35l-8.01,24.25h-10.29l26.19-77.09h12.01l26.3,77.09h-10.64l-8.23-24.25h-27.33Zm25.28-7.78l-7.55-22.19c-1.72-5.03-2.86-9.61-4-14.07h-.23c-1.14,4.57-2.4,9.26-3.89,13.95l-7.55,22.3h23.22Z"/>
      <g>
        <path d="m270.3,316.31c-2.67,8.08-5.34,16.16-8.01,24.25,3.68-2.8,7.35-5.6,11.03-8.4h-10.29c3.68,4.83,7.35,9.65,11.03,14.48,8.73-25.7,17.46-51.39,26.19-77.09l-11.03,8.4h12.01l-11.03-8.4c8.77,25.7,17.54,51.39,26.3,77.09,3.68-4.83,7.35-9.65,11.03-14.48h-10.64c3.68,2.8,7.35,5.6,11.03,8.4-2.74-8.08-5.49-16.16-8.23-24.25-1.63-4.81-5.79-8.4-11.03-8.4h-27.33c-14.72,0-14.74,22.88,0,22.88h27.33c-3.68-2.8-7.35-5.6-11.03-8.4,2.74,8.08,5.49,16.16,8.23,24.25,1.63,4.81,5.79,8.4,11.03,8.4h10.64c7.07,0,13.46-7.36,11.03-14.48-8.77-25.7-17.54-51.39-26.3-77.09-1.64-4.8-5.78-8.4-11.03-8.4h-12.01c-5.27,0-9.4,3.59-11.03,8.4-8.73,25.7-17.46,51.39-26.19,77.09-2.42,7.12,3.96,14.48,11.03,14.48h10.29c5.24,0,9.44-3.59,11.03-8.4,2.67-8.08,5.34-16.16,8.01-24.25,4.63-14.01-17.46-20.02-22.06-6.08Z"/>
        <path d="m317.63,308.54c-4.09-12.02-8.4-23.95-11.55-36.26-1.24-4.85-6.07-8.4-11.03-8.4h-.23c-4.94,0-9.8,3.54-11.03,8.4-3.12,12.31-7.37,24.23-11.44,36.26-2.41,7.12,3.95,14.48,11.03,14.48h23.22c14.72,0,14.74-22.88,0-22.88h-23.22c3.68,4.83,7.35,9.65,11.03,14.48,4.07-12.02,8.32-23.94,11.44-36.26l-11.03,8.4h.23l-11.03-8.4c3.16,12.31,7.46,24.23,11.55,36.26,4.71,13.86,26.82,7.91,22.06-6.08Z"/>
      </g>
    </g>
    <g>
      <path d="m338.86,267.54c5.03-1.03,12.24-1.6,19.1-1.6,10.64,0,17.5,1.94,22.3,6.29,3.89,3.43,6.06,8.69,6.06,14.64,0,10.18-6.41,16.93-14.53,19.67v.34c5.95,2.06,9.49,7.55,11.32,15.55,2.51,10.75,4.34,18.18,5.95,21.16h-10.29c-1.26-2.17-2.97-8.81-5.15-18.41-2.29-10.64-6.4-14.64-15.44-14.98h-9.38v33.4h-9.95v-76.06Zm9.95,35.11h10.18c10.64,0,17.39-5.83,17.39-14.64,0-9.95-7.21-14.3-17.73-14.41-4.8,0-8.23.46-9.84.91v28.14Z"/>
      <g>
        <path d="m341.9,278.57c8.03-1.42,21.47-3.49,28.95.91,6.7,3.93,4.5,13.46-2.1,16.04-4.76,1.86-8.4,5.62-8.4,11.03v.34c0,3.67,2.1,8.31,5.66,9.88,6.44,2.83,6.49,10.7,8.01,16.85,1.34,5.42,2.77,10.69,5.16,15.76,3.29-5.74,6.58-11.47,9.88-17.21h-10.29c3.29,1.89,6.58,3.78,9.88,5.66-4.91-10.17-3.31-25.08-13.97-33.59-7.5-5.98-16.83-5.47-25.87-5.47-6.18,0-11.44,5.24-11.44,11.44v33.4l11.44-11.44h-9.95l11.44,11.44v-76.06c0-14.72-22.88-14.74-22.88,0v76.06c0,6.18,5.24,11.44,11.44,11.44h9.95c6.18,0,11.44-5.24,11.44-11.44v-33.4l-11.44,11.44c3.12,0,10.03-.97,11.96.81,2.89,2.67,3.12,11.51,4.08,15.25,1.04,4.04,2.23,7.91,4.05,11.67,1.71,3.54,6.09,5.66,9.88,5.66h10.29c9.26,0,13.47-9.57,9.88-17.21-6.63-14.12-4.05-33.21-21.37-40.82l5.66,9.88v-.34l-8.4,11.03c19.26-7.53,30.07-29.37,17.85-48.18-11.84-18.24-38.34-16.16-56.87-12.88-14.47,2.56-8.34,24.61,6.08,22.06Z"/>
        <path d="m348.81,314.09c5.81,0,11.66.28,17.41-.75,10.72-1.92,19.45-10.15,21.14-20.98,1.61-10.3-2.42-20.83-11.71-26.13-8.64-4.93-20.44-5.04-29.89-2.74-4.86,1.19-8.4,6.12-8.4,11.03v28.14c0,14.72,22.88,14.74,22.88,0v-28.14l-8.4,11.03c3.5-.85,8.31-.59,12.61.5.52.13.37.54.36.71.04-1.19.12,1.7.08,1.98-.21,1.76.56-.74-.23.66-.19.34-.51.86-2.24,1.4-1.43.44-2.85.41-4.33.42-3.1.03-6.2,0-9.3,0-14.72,0-14.74,22.88,0,22.88Z"/>
      </g>
    </g>
    <g>
      <path d="m416.06,274.98h-23.44v-8.46h57.07v8.46h-23.56v68.62h-10.07v-68.62Z"/>
      <path d="m416.06,263.54h-23.44l11.44,11.44v-8.46l-11.44,11.44h57.07l-11.44-11.44v8.46l11.44-11.44h-23.56c-6.18,0-11.44,5.24-11.44,11.44v68.62l11.44-11.44h-10.07l11.44,11.44v-68.62c0-14.72-22.88-14.74-22.88,0v68.62c0,6.18,5.24,11.44,11.44,11.44h10.07c6.18,0,11.44-5.24,11.44-11.44v-68.62l-11.44,11.44h23.56c6.18,0,11.44-5.24,11.44-11.44v-8.46c0-6.18-5.24-11.44-11.44-11.44h-57.07c-6.18,0-11.44,5.24-11.44,11.44v8.46c0,6.18,5.24,11.44,11.44,11.44h23.44c14.72,0,14.74-22.88,0-22.88Z"/>
    </g>
  </g>
  <polygon class="cls-1" points="306.91 310.72 296.5 311.46 284.03 310.72 289.75 293.56 295.47 276.41 301.19 293.56 306.91 310.72"/>
</svg>